<svg xmlns="http://www.w3.org/2000/svg" width="24" height="24" viewBox="0 0 24 24" fill="none">
    <path d="M20.5 11.9918C20.5 11.7158 20.395 11.4568 20.194 11.2548L14.77 5.83184C14.6847 5.74645 14.5833 5.67871 14.4718 5.6325C14.3603 5.58629 14.2407 5.5625 14.12 5.5625C13.9993 5.5625 13.8797 5.58629 13.7682 5.6325C13.6567 5.67871 13.5553 5.74645 13.47 5.83184L13.146 6.15684C13.0606 6.24218 12.9929 6.34351 12.9467 6.45504C12.9004 6.56657 12.8767 6.68611 12.8767 6.80684C12.8767 6.92756 12.9004 7.0471 12.9467 7.15863C12.9929 7.27016 13.0606 7.37149 13.146 7.45684L16.54 10.8518H4.42C4.29923 10.8517 4.17962 10.8754 4.06801 10.9215C3.95639 10.9676 3.85497 11.0353 3.76952 11.1207C3.68408 11.206 3.6163 11.3074 3.57005 11.4189C3.5238 11.5305 3.5 11.6501 3.5 11.7708V12.2308C3.5 12.7378 3.911 13.1488 4.42 13.1488H16.54L13.146 16.5428C13.0606 16.6282 12.9929 16.7295 12.9467 16.841C12.9004 16.9526 12.8767 17.0721 12.8767 17.1928C12.8767 17.3136 12.9004 17.4331 12.9467 17.5446C12.9929 17.6562 13.0606 17.7575 13.146 17.8428L13.471 18.1678C13.83 18.5268 14.411 18.5268 14.771 18.1678L20.194 12.7458C20.398 12.5408 20.5 12.2688 20.5 11.9918Z" fill="#141414"/>
  </svg>