<svg xmlns="http://www.w3.org/2000/svg" width="25" height="24" viewBox="0 0 25 24" fill="none">
  <path d="M12.5 22C18.023 22 22.5 17.523 22.5 12C22.5 6.477 18.023 2 12.5 2C6.977 2 2.5 6.477 2.5 12C2.5 17.523 6.977 22 12.5 22ZM17.32 8.54C17.417 8.63687 17.4939 8.75191 17.5464 8.87854C17.599 9.00518 17.626 9.14091 17.626 9.278C17.626 9.41508 17.599 9.55083 17.5464 9.67746C17.4939 9.80409 17.417 9.91913 17.32 10.016L11.876 15.459C11.6804 15.6546 11.4151 15.7645 11.1385 15.7645C10.8619 15.7645 10.5966 15.6546 10.401 15.459L7.68 12.738C7.58308 12.6412 7.50619 12.5262 7.45372 12.3996C7.40124 12.273 7.37421 12.1374 7.37416 12.0004C7.37407 11.7236 7.4839 11.4582 7.6795 11.2625C7.8751 11.0668 8.14044 10.9568 8.41715 10.9567C8.69386 10.9566 8.95927 11.0664 9.155 11.262L11.139 13.246L15.844 8.541C16.0396 8.34541 16.3049 8.23553 16.5815 8.23553C16.8581 8.23553 17.1234 8.34541 17.319 8.541L17.32 8.54Z" fill="#fcfcfc"/>
</svg>