<svg width="201" height="356" viewBox="0 0 201 356" fill="none" xmlns="http://www.w3.org/2000/svg">
<g clip-path="url(#clip0_58_414)">
<path d="M204 433.878L187.767 120.306L159.717 118.612C159.717 118.612 149.693 185.562 150.097 208.048C150.438 227.025 154.231 267.548 139.242 271.2C128.889 273.722 104.211 238.864 94.299 222.153C83.302 203.61 41.389 154.053 41.389 154.053L16.449 167.006L153.209 444.89L192.703 449L203.996 433.878H204Z" fill="#3A4665"/>
<path d="M24.995 145.634C18.041 151.953 5.98499 150.972 3.13299 158.722C1.08699 164.282 5.75899 166.585 8.46199 167.242C17.976 169.547 23.597 165.539 31.872 162.823C35.122 161.757 44.603 160.837 41.617 152.901C40.227 149.209 38.416 145.212 34.74 143.778C33.054 143.121 31.195 143.06 29.383 143.149" fill="#1B2230"/>
<path d="M61.019 114.89C61.019 114.89 25.781 136.056 25.177 147.944C25.051 150.4 28.807 155.009 31.146 155.754C50.666 161.956 94.299 139.218 94.299 139.218L61.019 114.89Z" fill="#A2AAA8"/>
<path d="M154.232 116.042C154.232 116.042 154.802 122.32 167.928 125.174L189.611 129.737C189.611 129.737 197.598 130.88 200.451 124.602C200.451 124.602 203.303 114.899 189.04 109.764C174.772 104.628 154.232 116.042 154.232 116.042Z" fill="#1B2230"/>
<path d="M113.718 108.62L182.192 124.602C182.192 124.602 190.75 125.174 192.464 116.613C194.178 108.053 186.187 104.628 186.187 104.628L114.285 68.098L113.714 108.621L113.718 108.62Z" fill="#A3ABA9"/>
<path d="M95.4378 0.758062C94.0318 1.43506 83.7108 12.8201 81.1218 17.7331C74.6178 30.0661 68.7298 57.7291 65.8208 71.3641C64.2568 78.6881 62.6278 93.6041 61.3798 100.988C60.3018 107.348 57.7248 120.326 58.9118 126.665C59.8068 131.448 65.8418 140.445 70.2658 142.465C81.5958 147.632 109.305 138.853 118.641 130.613C128.241 122.142 132.455 94.4511 133.942 81.7321C134.89 73.6181 132.212 57.2791 131.474 49.1451C130.587 39.3401 128.269 18.8231 122.588 10.7821C118.41 4.87206 101.962 -2.37494 95.4378 0.754062V0.758062Z" fill="#1B2230"/>
<path d="M42.318 90.061C42.318 90.061 56.326 109.374 61.015 114.891C66.084 120.853 75.748 129.182 84.315 133.199C87.228 134.565 95.199 135.732 97.185 133.199C101.131 128.165 95.495 112.989 91.09 108.357C86.855 103.903 69.751 96.161 69.751 96.161L49.316 80.577L42.318 90.061Z" fill="#70464F"/>
<path d="M2.368 60.555L36.703 58.953C37.0139 58.9385 37.3246 58.9854 37.6174 59.0909C37.9102 59.1965 38.1794 59.3587 38.4095 59.5683C38.6396 59.7779 38.8261 60.0307 38.9585 60.3124C39.0909 60.5941 39.1665 60.8991 39.181 61.21L39.876 76.132C39.8905 76.4429 39.8437 76.7537 39.7381 77.0464C39.6325 77.3392 39.4703 77.6084 39.2607 77.8385C39.0511 78.0686 38.7983 78.2552 38.5166 78.3875C38.2349 78.5199 37.9299 78.5955 37.619 78.61L3.285 80.21C2.97409 80.2245 2.66337 80.1777 2.37057 80.0721C2.07778 79.9665 1.80864 79.8043 1.57853 79.5948C1.34843 79.3852 1.16186 79.1323 1.02948 78.8506C0.897097 78.5689 0.821497 78.2639 0.806996 77.953L0.110996 63.032C0.0819423 62.4043 0.303384 61.7907 0.726629 61.3262C1.14987 60.8617 1.74027 60.5843 2.368 60.555Z" fill="#E1A6AD"/>
<path d="M49.26 80.946C47.387 78.72 44.45 77.618 41.556 77.346C38.663 77.075 35.753 77.541 32.876 77.954C28.804 78.538 24.719 79.024 20.626 79.405C18.268 79.625 15.886 79.811 13.536 79.511C12.242 79.345 10.93 79.033 9.65297 79.288C9.42997 79.332 9.20697 79.398 9.03697 79.548C8.70497 79.843 8.70097 80.386 8.91197 80.779C9.12197 81.173 9.49497 81.449 9.85997 81.704C14.042 84.642 18.912 86.875 24.022 86.948C26.092 86.977 28.155 86.652 30.222 86.689C33.849 86.754 37.366 87.917 40.701 89.336C41.909 89.85 43.209 90.41 44.49 90.118C46.086 89.753 47.091 88.208 47.922 86.798C48.984 84.991 50.082 82.867 49.36 80.897M22.182 58.309C21.0874 59.9857 19.6498 61.4114 17.964 62.492C16.578 63.379 14.934 64.137 14.281 65.649C14.151 65.953 14.066 66.277 14.082 66.609C14.122 67.477 14.872 68.194 15.712 68.417C16.55 68.64 17.445 68.457 18.26 68.15C21.506 66.922 23.718 63.91 26.697 62.13C27.381 61.722 28.111 61.377 28.739 60.883C29.367 60.388 29.898 59.707 29.999 58.913C30.104 58.082 29.707 57.235 29.075 56.688C28.443 56.14 27.6 55.877 26.765 55.836C24.962 55.747 23.143 56.712 22.207 58.256" fill="#70464F"/>
<path d="M43.473 44.865C41.669 46.632 39.809 48.439 37.492 49.441C36.592 49.83 35.644 50.085 34.696 50.341L23.354 53.404C21.295 53.96 19.22 54.524 17.316 55.48C15.411 56.436 13.665 57.83 12.644 59.703C13.276 60.056 14.05 59.963 14.771 59.885C16.846 59.667 18.937 59.679 21.019 59.687L37.832 59.772C38.087 59.772 38.362 59.78 38.57 59.926C38.87 60.133 38.934 60.542 38.97 60.906L39.206 63.116C39.222 63.262 39.242 63.42 39.348 63.526C39.55 63.724 39.891 63.582 40.126 63.42C43.646 60.992 48.578 57.385 51.484 54.243C51.744 53.963 51.387 52.173 51.5 51.808C51.65 51.325 48.858 51.608 48.627 51.159C47.383 48.723 44.377 47.491 43.367 44.949M57.449 53.834C60.322 56.003 63.223 58.187 66.489 59.707C69.755 61.227 73.455 62.046 76.984 61.337C80.271 60.676 83.565 58.727 86.758 59.744C87.99 60.137 89.039 60.935 90.142 61.608C92.3466 62.9567 94.8065 63.8345 97.367 64.186C98.975 64.405 100.637 64.409 102.197 63.959C104.345 63.343 106.177 61.904 107.7 60.266C111.545 56.136 113.746 50.511 113.718 44.865C113.693 39.218 111.44 33.613 107.558 29.519C105.2 27.031 101.536 25.02 98.441 26.496C97.241 27.067 96.329 28.084 95.373 29.009C90.697 33.536 84.538 36.203 78.35 38.234C72.166 40.264 65.784 41.768 59.848 44.439C58.826 44.897 57.801 45.408 57.028 46.214C55.188 48.135 55.358 52.189 57.445 53.834H57.449Z" fill="#70464F"/>
<path d="M36.252 22.698C35.583 23.525 33.087 30.2569 33.452 32.8709C33.812 35.4529 36.815 39.997 38.464 42.011C41.463 45.679 47.067 53.992 51.435 55.824C55.812 57.66 65.788 56.846 70.424 55.824C73.832 55.074 80.25 51.9699 83.719 51.5929C85.23 51.4269 88.302 52.752 89.761 52.33C93.416 51.277 100.001 45.582 100.815 41.861C101.873 37.0499 98.732 26.9459 96.245 22.694C93.89 18.669 88.468 10.615 84.452 8.24395C80.312 5.79995 70.492 3.15395 65.732 3.82195C60.472 4.55995 50.548 9.21695 46.272 12.374C43.379 14.5099 38.509 19.8969 36.248 22.694L36.252 22.698Z" fill="#1B2230"/>
</g>
<defs>
<clipPath id="clip0_58_414">
<rect width="201" height="356" fill="white"/>
</clipPath>
</defs>
</svg>
