<svg width="183" height="333" viewBox="0 0 183 333" fill="none" xmlns="http://www.w3.org/2000/svg">
<g clip-path="url(#clip0_58_379)">
<path d="M126.897 422.076C130.811 396.593 134.725 371.111 138.644 345.629L168.29 152.659L139.285 146.19C127.506 188.997 116.926 221.681 109.211 244.158C105.385 255.301 99.954 270.661 92.851 270.616C86.363 270.576 82.094 257.719 76.505 242.866C62.926 206.787 43.497 173.184 28.611 137.628L9.45996 129.474C22.413 197.811 35.366 266.144 48.315 334.482C55.425 354.912 62.539 375.344 69.649 395.772L55.183 447.615L142.259 474L126.897 422.067V422.076Z" fill="#3A4665"/>
<path d="M0.00103789 128.21C-0.0309621 131.608 0.611038 136.477 11.275 136.862C16.42 137.048 24.067 137.412 28.607 137.636C31.5394 137.776 34.476 137.467 37.315 136.72C41.189 135.703 46.584 133.946 50.651 131.284C52.144 130.308 57.584 126.521 58.419 123.369C58.827 121.826 57.176 120.307 55.276 119.599C49.486 117.443 43.154 114.689 38.872 114.629C32.542 114.535 13.789 120.514 14.128 120.016C14.468 119.513 1.04204 119.874 0.00103789 128.218M147.3 144.165C150.779 143.229 154.535 143.622 158.139 143.549C164.712 143.416 171.475 140.807 177.689 142.97C179.328 143.541 180.898 144.473 181.886 145.907C183.553 148.317 183.206 151.691 181.801 154.263C180.397 156.839 178.113 158.792 175.881 160.683L173.699 162.535C172.851 163.255 171.992 163.981 171.003 164.487C169.651 165.176 168.122 165.423 166.617 165.597C158.224 166.569 149.6 165.653 141.393 167.667C138.37 168.407 135.166 169.534 132.253 168.444C131.377 168.116 130.578 167.598 129.88 166.978C126.959 164.378 125.994 159.719 127.842 156.264C128.984 154.134 130.982 152.611 132.987 151.274C137.439 148.311 142.247 145.923 147.297 144.165H147.3Z" fill="#F2F2F2"/>
<path d="M132.825 156.775C132.454 158.496 132.934 161.145 134.302 162.247C135.67 163.349 137.748 163.519 139.221 162.563C139.959 162.085 140.516 161.376 141.154 160.764C142.122 159.833 143.312 159.084 143.99 157.921C144.745 156.629 144.717 154.919 143.922 153.651C143.667 153.251 143.324 152.878 142.872 152.732C142.102 152.485 141.302 152.959 140.617 153.392C139.257 154.252 137.837 155.032 136.315 155.568C135.609 155.815 133.422 156.653 132.821 156.778" fill="#E7BAA9"/>
<path d="M140.451 99.6281C128.095 95.0771 114.658 95.7051 102.213 96.7461C97.8431 97.1141 93.0491 98.2201 90.5391 101.833C89.0261 104.008 88.6111 106.738 88.2311 109.362C87.7311 112.83 87.2351 116.345 87.6511 119.821C88.0701 123.296 89.5231 126.791 92.2831 128.935C94.4981 130.656 97.3191 131.357 100.046 132.009C105.256 133.261 106.939 140.013 112.293 140.122C117.648 140.232 126.76 133.613 131.113 130.482C135.016 127.679 137.699 123.478 139.769 119.132C142.166 114.102 149.939 103.448 145.14 100.633C144.059 99.9971 141.44 99.9891 140.447 99.6251L140.451 99.6281Z" fill="#B5D1F0"/>
<path d="M142.332 100.135C147.993 100.135 151.94 105.944 153.364 111.445C154.788 116.945 153.566 122.782 151.806 128.185C150.047 133.589 147.739 138.863 146.94 144.489C146.532 147.345 146.452 150.443 144.708 152.739C143.736 154.019 142.348 154.899 140.984 155.741C139.238 156.819 137.484 157.884 135.722 158.937C135.226 159.233 134.652 159.537 134.104 159.367C133.761 159.261 133.499 158.986 133.256 158.715C131.166 156.379 129.457 153.728 128.192 150.86C127.034 148.236 126.259 145.445 124.988 142.869C123.208 139.259 120.501 136.149 118.899 132.459C118.346 131.183 117.927 129.806 118.068 128.424C118.218 126.982 118.964 125.674 119.758 124.463C122.737 119.93 126.638 116.05 129.463 111.42C130.96 108.965 132.151 106.312 133.923 104.052C135.693 101.792 138.486 98.6321 141.097 99.8111C141.387 99.9411 142.647 100.155 142.327 100.139L142.332 100.135Z" fill="#B5D1F0"/>
<path d="M133.769 88.2271C136.287 92.6741 138.93 97.5271 139.213 102.748C139.414 106.491 137.405 112.072 133.809 113.879C131.816 114.879 129.435 114.515 127.256 114.037C124.435 113.418 121.647 112.655 118.903 111.752C115.477 110.626 112.072 109.245 109.251 106.993C106.97 105.167 105.149 102.832 103.933 100.176C100.741 93.1891 102.117 85.0591 103.553 77.5091C103.924 75.5491 104.316 73.5471 105.296 71.8141C107.746 67.4921 110.946 68.2011 114.719 69.9631C118.907 71.9191 123.015 74.1351 126.211 77.3311C129.346 80.4661 131.586 84.3661 133.773 88.2271H133.769Z" fill="#B5D1F0"/>
<path d="M20.9521 119.084C16.6621 124.969 12.8421 121.117 12.2881 125.322C11.9451 127.942 11.9331 131.155 14.6851 133.03C17.4371 134.906 22.2951 130.904 26.1011 131.604C30.8541 132.479 21.3511 123.644 20.9521 119.08V119.084Z" fill="#E7BAA9"/>
<path d="M47.3791 100.423C39.0949 102.191 31.4123 106.081 25.084 111.712C22.808 113.742 20.625 116.172 20.092 119.182C19.729 121.235 20.1821 123.333 20.6251 125.366C20.8471 126.383 21.0811 127.42 21.6251 128.307C22.2881 129.385 23.3571 130.142 24.4511 130.77C26.8961 132.166 29.6042 133.039 32.404 133.334C34.854 133.589 37.3231 133.399 39.7761 133.208L51.051 132.333C52.273 132.24 53.532 132.131 54.614 131.552C56.773 130.393 57.5921 127.74 58.0801 125.33C59.0771 120.38 59.488 115.147 57.903 110.355C56.3171 105.563 52.366 101.305 47.391 100.577" fill="#B5D1F0"/>
<path d="M34.4011 57.6001C34.8901 58.8361 35.8181 59.8481 36.3951 61.0471C38.3851 65.1871 35.7531 69.9671 35.4221 74.5521C35.0751 79.3561 37.3111 83.9251 39.4861 88.2221C40.3661 89.9601 41.2731 91.7341 42.6741 93.0921C45.2721 95.6151 49.0941 96.2791 52.6641 96.8261C54.2631 97.0691 55.8771 97.3161 57.4871 97.1741C59.0451 97.0371 60.5421 96.5421 62.0271 96.0521L68.1441 94.0271C70.2181 93.3381 72.3971 92.5891 73.8461 90.9411C75.7991 88.7171 75.9281 85.4721 75.9161 82.5071C75.9041 77.9171 76.3321 62.2021 72.9661 59.0951C71.3441 57.5961 69.1041 61.0471 67.3891 59.6621C65.6591 58.2641 63.7781 62.6591 62.3291 60.9661C60.5995 58.9471 58.5407 57.2352 56.2401 55.9031C54.2951 54.7771 52.1731 53.9301 49.9571 53.5821C46.7251 53.0721 43.4281 53.6271 40.2041 54.1821C37.8881 54.5781 35.1441 55.3321 34.4501 57.5881L34.3931 57.5961L34.4011 57.6001ZM83.4781 25.8961C95.7531 24.9971 108.032 27.6101 120.34 27.4231C121.926 27.3991 123.544 27.3231 125.033 26.7791C128.592 25.4791 130.839 21.7691 134.378 20.4191C135.964 19.8161 137.695 19.7391 139.394 19.6661L145.629 19.4031C146.032 19.3871 146.489 19.3911 146.767 19.6871C147.105 20.0471 146.98 20.6431 146.754 21.0841C146.468 21.6321 146.063 22.1092 145.568 22.4807C145.074 22.8521 144.503 23.1085 143.897 23.2311C142.852 23.4341 141.771 23.2231 140.706 23.3001C139.64 23.3771 139.071 23.9321 138.756 24.9571C138.466 25.9041 139.523 26.5401 140.136 27.3181C142.404 30.1981 144.579 32.4101 147.921 33.9001C149.631 34.6661 151.581 35.5531 152.117 37.3551C152.497 38.6311 152.017 40.0251 151.257 41.1181C149.737 43.3061 147.174 44.5941 144.559 45.0601C141.944 45.5251 139.257 45.2421 136.634 44.8121C133.906 44.3583 131.202 43.772 128.531 43.0551C125.621 42.2851 122.729 41.3901 119.739 41.0291C109.542 39.8061 99.5951 44.9291 89.3251 45.1241C87.5251 45.1611 85.6851 45.0311 84.0351 44.3181C82.6061 43.6981 81.3801 42.6661 80.3791 41.4671C78.3531 39.0491 77.1791 35.8001 77.6871 32.6811C78.1961 29.5621 80.3831 26.5081 83.4741 25.8961H83.4781Z" fill="#E7BAA9"/>
<path d="M55.9211 120.007C58.0041 131.644 42.7791 140.26 49.0091 156.082C50.7691 158.998 54.2831 160.222 57.0791 162.153C61.2961 165.066 64.1891 169.878 68.9231 171.843C71.8001 173.033 75.0041 173.013 78.1071 173.232C89.8861 173.621 101.064 179.421 112.762 179.798C115.159 179.413 117.532 177.74 121.934 175.718C130.981 171.563 133.608 162.818 138.624 156.316C142.804 150.896 147.84 143.836 138.95 139.563C131.449 135.209 122.091 130.891 113.42 129.481C111.2 129.412 113.645 132.025 112.027 133.552C109.332 136.104 110.696 139.98 108.634 143.072C103.448 152.614 96.8271 157.592 88.9301 146.174C87.3561 144.262 81.5571 145.177 80.1931 143.108C74.5891 133.435 62.0311 129.04 55.9211 120.007Z" fill="#1B2230"/>
<path d="M55.6831 120.072C56.2851 123.519 55.2831 126.889 53.8681 130.004C52.3501 133.346 50.4461 136.501 49.0781 139.916C47.6131 143.568 46.8871 147.454 47.4721 151.378C47.6421 152.516 47.9121 153.642 48.2671 154.736C48.4401 155.274 48.5931 155.894 48.9001 156.372C49.2071 156.85 49.5621 157.288 49.9531 157.692C51.6321 159.418 53.8681 160.443 55.8931 161.678C58.0481 162.995 59.8361 164.728 61.6111 166.511C63.3871 168.293 65.1061 170.023 67.2321 171.274C69.6451 172.692 72.3731 173.109 75.1221 173.3C78.0821 173.502 81.0291 173.6 83.9661 174.081C89.7861 175.037 95.4101 176.864 101.132 178.257C103.941 178.938 106.777 179.517 109.651 179.829C110.877 179.963 112.241 180.214 113.451 179.914C114.315 179.699 115.143 179.347 115.946 178.97C117.003 178.472 118.036 177.921 119.076 177.39C120.356 176.738 121.672 176.167 122.946 175.507C125.029 174.434 126.909 173.004 128.544 171.327C131.634 168.159 133.761 164.247 136.077 160.512C137.199 158.705 138.434 157.004 139.709 155.307C140.984 153.61 142.119 152.006 142.994 150.167C143.74 148.603 144.297 146.853 144.079 145.103C143.845 143.244 142.715 141.741 141.246 140.648C140.206 139.87 139.015 139.311 137.889 138.675C136.64 137.97 135.379 137.288 134.104 136.63C131.513 135.289 128.862 134.067 126.159 132.968C123.455 131.874 120.655 130.906 117.814 130.168C116.435 129.805 115.041 129.507 113.634 129.274C112.976 129.168 112.257 129.354 112.184 130.112C112.112 130.87 112.467 131.639 112.346 132.422C112.261 132.984 111.922 133.284 111.559 133.681C111.168 134.111 110.849 134.601 110.611 135.131C109.638 137.274 109.909 139.741 108.989 141.899C108.743 142.483 108.392 143.017 108.081 143.569C107.771 144.119 107.468 144.634 107.145 145.156C106.527 146.165 105.849 147.136 105.115 148.064C103.917 149.564 102.508 150.984 100.773 151.84C99.2401 152.593 97.5331 152.727 95.9151 152.168C93.7521 151.418 92.0091 149.701 90.5801 147.968C90.0681 147.343 89.6281 146.663 89.1271 146.035C88.9221 145.772 88.6391 145.569 88.3491 145.407C87.6191 145.007 86.7751 144.832 85.9641 144.69C85.0111 144.524 84.0471 144.415 83.0941 144.233C82.3041 144.079 81.4081 143.896 80.7621 143.373C80.4071 143.09 80.2181 142.669 79.9801 142.288C79.6768 141.809 79.3566 141.34 79.0201 140.883C78.3442 139.969 77.6135 139.096 76.8321 138.27C75.2341 136.573 73.4591 135.05 71.6311 133.604C67.9421 130.687 64.0001 128.083 60.5381 124.887C58.9031 123.38 57.3861 121.736 56.1311 119.893C55.9501 119.629 55.5181 119.876 55.7001 120.148C58.2581 123.907 61.8131 126.803 65.4001 129.517C68.9881 132.231 73.0101 135.009 76.2591 138.396C77.0635 139.229 77.8156 140.11 78.5111 141.036C78.8381 141.474 79.1481 141.924 79.4471 142.386C79.7011 142.782 79.9071 143.244 80.2421 143.58C80.7541 144.103 81.4921 144.362 82.1821 144.544C83.0871 144.784 84.0191 144.897 84.9421 145.034C85.8671 145.172 86.7301 145.298 87.5701 145.61C87.9171 145.74 88.2681 145.905 88.5461 146.157C89.0101 146.574 89.3331 147.202 89.7161 147.692C91.1291 149.519 92.8161 151.305 94.9261 152.305C96.4231 153.015 98.0861 153.237 99.6881 152.787C101.374 152.317 102.827 151.232 104.05 150.009C105.603 148.449 106.87 146.606 107.988 144.719C108.598 143.689 109.279 142.649 109.663 141.507C110.046 140.364 110.167 139.217 110.345 138.059C110.522 136.901 110.752 135.767 111.357 134.77C111.887 133.904 112.757 133.401 112.851 132.316C112.887 131.915 112.831 131.514 112.77 131.116C112.721 130.801 112.62 130.44 112.677 130.116C112.757 129.663 113.294 129.727 113.645 129.78C114.303 129.881 114.961 130.02 115.615 130.16C121.329 131.392 126.82 133.592 132.055 136.164C134.58 137.404 137.022 138.797 139.495 140.134C141.283 141.101 142.985 142.524 143.478 144.589C143.894 146.327 143.378 148.145 142.647 149.729C141.807 151.539 140.661 153.197 139.471 154.792C138.22 156.473 136.973 158.13 135.859 159.912C134.746 161.695 133.619 163.639 132.442 165.466C129.96 169.318 126.97 172.822 122.866 174.989C121.623 175.645 120.328 176.199 119.076 176.836C118.032 177.366 116.995 177.917 115.937 178.428C115.107 178.828 114.251 179.201 113.355 179.432C112.774 179.582 112.229 179.546 111.635 179.509C110.917 179.465 110.2 179.403 109.485 179.323C103.662 178.675 98.0331 176.933 92.3841 175.454C89.5671 174.717 86.7301 174.037 83.8541 173.575C80.9761 173.113 78.1481 173.016 75.2741 172.825C72.4011 172.635 69.6901 172.218 67.2481 170.719C65.1381 169.427 63.4031 167.621 61.6641 165.883C59.9241 164.145 58.1741 162.505 56.0791 161.233C53.9851 159.961 51.7651 158.96 50.1191 157.17C49.6831 156.696 49.2961 156.186 49.0691 155.578C48.8606 155.017 48.6738 154.448 48.5091 153.873C48.1991 152.793 47.9803 151.689 47.8551 150.572C47.6422 148.579 47.7417 146.565 48.1501 144.602C48.9041 140.927 50.6111 137.569 52.3141 134.264C53.8721 131.242 55.5261 128.144 56.1271 124.761C56.4153 123.174 56.4235 121.548 56.1511 119.958C56.0951 119.642 55.6151 119.776 55.6671 120.092L55.6831 120.072Z" fill="#1B2230"/>
<path d="M85.3541 34.8481C90.2411 36.8851 95.4061 39.1521 98.3471 43.5651C100.321 46.5301 101.067 50.1671 102.94 53.1971C104.517 55.7491 106.842 57.7901 108.242 60.4431C110.211 64.1701 110.118 68.6051 111.006 72.7291C111.732 76.1111 113.145 79.3591 113.383 82.8071C113.681 87.1491 112.1 91.3901 110.272 95.3351C108.504 99.1431 106.398 102.934 103.113 105.535C100.652 107.487 97.6781 108.649 94.7531 109.788C94.0621 110.055 93.2751 110.322 92.6091 109.998C92.0291 109.715 91.7291 109.075 91.4431 108.491C88.5661 102.652 82.7961 98.9321 78.1711 94.3631C77.2271 93.4311 76.3151 92.4391 75.6691 91.2801C74.9391 89.9681 74.5761 88.4861 74.3091 87.0071C73.7936 84.1579 73.607 81.2589 73.7531 78.3671C73.9631 74.2601 74.8381 70.2091 75.0281 66.0981C75.3221 59.6451 73.9221 53.0111 75.7341 46.8091C77.1911 41.8191 80.7701 37.4931 85.3861 35.1321L85.3581 34.8451L85.3541 34.8491V34.8481Z" fill="#F2F2F2"/>
<path d="M85.2861 35.0911C90.1241 37.1121 95.4301 39.3811 98.3391 44.0181C99.8971 46.5011 100.668 49.3691 101.975 51.9781C103.283 54.5861 105.369 56.5951 107.031 58.9611C107.883 60.1639 108.542 61.4922 108.984 62.8981C109.428 64.3161 109.678 65.7181 109.888 67.1511C110.098 68.5851 110.276 70.1081 110.53 71.5741C110.784 73.0411 111.196 74.5921 111.631 76.0741C112.067 77.5571 112.531 79.0801 112.834 80.6191C113.137 82.1591 113.242 83.7461 113.104 85.3261C112.834 88.4661 111.728 91.4751 110.454 94.3311C109.287 96.9391 107.996 99.5271 106.297 101.828C104.598 104.128 102.314 106.057 99.6831 107.402C98.3391 108.09 96.9431 108.662 95.5391 109.212C94.8691 109.476 94.1551 109.844 93.4291 109.892C92.6291 109.942 92.1941 109.407 91.8551 108.759C91.2411 107.584 90.6151 106.446 89.8291 105.372C89.0508 104.32 88.2015 103.323 87.2871 102.387C85.4101 100.447 83.3401 98.7091 81.3191 96.9271C80.3183 96.0529 79.3413 95.1519 78.3891 94.2251C77.3041 93.1551 76.2711 92.0141 75.6131 90.6201C74.9551 89.2271 74.6531 87.6631 74.4101 86.1401C74.1449 84.4673 73.9942 82.7784 73.9591 81.0851C73.8861 77.7431 74.3621 74.4461 74.7861 71.1371C74.9961 69.5131 75.1861 67.8801 75.2661 66.2441C75.3461 64.6071 75.3181 63.0441 75.2581 61.4441C75.1411 58.2561 74.8951 55.0641 75.1171 51.8761C75.3221 48.9401 75.9801 46.0521 77.3601 43.4391C78.5863 41.1231 80.2675 39.0785 82.3031 37.4281C83.296 36.628 84.3683 35.9317 85.5031 35.3501C85.542 35.3286 85.5743 35.2968 85.5963 35.2581C85.6184 35.2195 85.6294 35.1755 85.6281 35.1311L85.6001 34.8441C85.5681 34.5241 85.0681 34.5241 85.1001 34.8441L85.1281 35.1311L85.2531 34.9131C80.5401 37.3391 76.9041 41.7581 75.4481 46.8721C73.6401 53.2361 75.1051 59.9001 74.7581 66.3851C74.5761 69.8121 73.9331 73.1911 73.6231 76.6011C73.3053 79.995 73.4355 83.416 74.0101 86.7761C74.2721 88.2831 74.6151 89.7981 75.3211 91.1671C76.0281 92.5371 77.0771 93.6461 78.1581 94.6991C80.1481 96.6431 82.3021 98.4091 84.3641 100.277C86.4261 102.144 88.3591 104.056 89.8971 106.332C90.2801 106.899 90.6351 107.482 90.9541 108.086C91.2531 108.646 91.4831 109.256 91.8941 109.739C92.8991 110.922 94.4321 110.172 95.6021 109.711C98.3911 108.617 101.192 107.431 103.524 105.506C105.856 103.582 107.438 101.266 108.822 98.7541C110.295 96.0801 111.602 93.2411 112.538 90.3291C113.475 87.4161 113.938 84.2121 113.418 81.0851C112.898 77.9581 111.638 74.9161 111.061 71.7531C110.513 68.7591 110.375 65.6731 109.455 62.7531C109.016 61.3452 108.366 60.0121 107.527 58.7991C106.683 57.5791 105.735 56.4991 104.819 55.3641C103.903 54.2301 103.015 52.9541 102.341 51.5931C101.667 50.2321 101.131 48.7901 100.55 47.3801C99.9691 45.9701 99.3751 44.6581 98.5561 43.4271C97.8124 42.323 96.9309 41.3182 95.9331 40.4371C93.9001 38.6311 91.4951 37.3071 89.0411 36.1681C87.8413 35.619 86.6307 35.0939 85.4101 34.5931C85.1121 34.4671 84.9831 34.9531 85.2771 35.0791L85.2861 35.0911Z" fill="#F2F2F2"/>
<path d="M121.724 95.0001C123.064 89.7461 115.316 87.5061 113.419 93.8331C105.535 104.708 99.611 115.763 91.726 126.638C89.797 129.3 87.8281 132.042 86.9811 135.221C85.4671 140.876 76.13 143.25 80.585 147.033C92.852 157.455 93.7191 155.361 95.6931 155.507C96.6931 155.58 98.408 154.486 99.296 154.017L102.52 152.299C104.477 151.258 106.463 150.196 108.036 148.633C111.224 145.465 112.249 140.775 113.133 136.36C115.793 123.045 119.069 108.313 121.728 95.0031L121.724 95.0001Z" fill="#E7BAA9"/>
<path d="M38.736 85.804L40.951 96.479C41.621 99.711 42.307 102.979 43.755 105.945C45.41 109.327 47.985 112.155 50.522 114.933C58.896 124.096 67.269 133.253 75.642 142.416C78.119 145.126 80.718 147.921 84.132 149.254C87.449 150.546 91.29 150.27 94.494 148.727C97.698 147.184 100.269 144.425 101.81 141.205C102.42 139.929 102.884 138.56 102.948 137.142C103.021 135.538 102.585 133.955 102.044 132.444C100.588 128.353 98.38 124.582 96.556 120.64C93.97 115.042 92.15 109.08 89.091 103.725C87.061 100.169 84.515 96.94 81.977 93.725C79.399 90.455 76.78 87.146 73.455 84.643C68.637 81.012 62.519 79.295 56.495 79.421C50.474 79.546 44.558 81.458 39.337 84.476C38.711 84.836 38.731 85.808 38.683 86.136L38.731 85.808L38.736 85.804Z" fill="#F2F2F2"/>
<path d="M38.493 85.869C39.248 89.511 40.007 93.152 40.761 96.794C41.459 100.156 42.206 103.554 43.816 106.612C45.426 109.67 47.552 112.044 49.764 114.47C52.266 117.217 54.776 119.95 57.281 122.693L72.466 139.304C73.696 140.654 74.928 142.006 76.166 143.347C77.224 144.493 78.305 145.619 79.491 146.632C81.86 148.657 84.616 150.083 87.76 150.29C93.966 150.695 99.546 146.672 102.109 141.152C102.807 139.649 103.283 138.029 103.199 136.356C103.114 134.683 102.533 132.941 101.903 131.329C100.632 128.069 98.945 124.998 97.42 121.855C94.41 115.649 92.485 108.921 88.954 102.971C87.183 99.985 85.064 97.223 82.921 94.497C80.779 91.771 78.789 89.179 76.388 86.829C73.988 84.479 71.441 82.734 68.479 81.454C65.517 80.174 62.507 79.474 59.379 79.234C52.763 78.729 46.113 80.51 40.302 83.641C39.769 83.929 39.042 84.189 38.74 84.755C38.514 85.181 38.501 85.659 38.44 86.125C38.405 86.404 38.893 86.473 38.933 86.189L38.982 85.861C39.026 85.545 38.546 85.407 38.497 85.727L38.449 86.056L38.941 86.12C39.001 85.659 38.986 85.055 39.381 84.735C39.671 84.5 40.059 84.338 40.386 84.16C40.766 83.953 41.153 83.75 41.54 83.556C42.9975 82.8195 44.5006 82.1769 46.04 81.632C49.125 80.539 52.361 79.85 55.634 79.689C61.804 79.385 68.135 81.009 73.143 84.704C75.778 86.648 77.973 89.123 80.027 91.658C82.081 94.194 84.277 96.94 86.225 99.707C88.1701 102.471 89.8419 105.418 91.217 108.505C92.601 111.604 93.759 114.731 95.058 117.829C96.358 120.928 97.908 123.925 99.392 126.951C100.155 128.507 100.889 130.082 101.507 131.707C102.124 133.331 102.693 135.004 102.701 136.745C102.709 138.487 102.141 140.002 101.398 141.46C100.73 142.775 99.8887 143.995 98.896 145.086C96.886 147.293 94.267 148.901 91.342 149.526C88.251 150.181 85.042 149.691 82.319 148.075C79.595 146.459 77.589 144.17 75.532 141.922L60.723 125.719L53.412 117.719C51.116 115.208 48.711 112.753 46.641 110.043C45.664 108.763 44.768 107.414 44.046 105.973C43.283 104.445 42.726 102.821 42.278 101.173C41.358 97.782 40.749 94.298 40.035 90.86L38.969 85.723C38.904 85.407 38.419 85.541 38.484 85.857L38.492 85.869H38.493Z" fill="#F2F2F2"/>
<path d="M94.473 115.755C95.0858 117.209 95.7441 118.643 96.447 120.056C98.202 117.589 99.937 115.126 101.673 112.668C100.405 111.371 99.2477 109.97 98.214 108.48C96.786 106.422 95.592 104.198 93.986 102.282C90.616 98.252 85.689 95.854 80.698 94.246C78.053 93.395 75.323 92.725 72.546 92.638C70.266 92.565 67.986 92.881 65.755 93.351C62.652 94.003 59.569 94.971 56.873 96.648C54.178 98.325 51.873 100.771 50.784 103.761C49.84 106.349 49.844 109.176 49.945 111.931C50.042 114.73 50.231 117.553 51.035 120.231C51.838 122.911 53.31 125.468 55.562 127.112L55.61 126.796C57.927 128.498 58.278 124.54 56.45 121.928C55.187 120.125 53.488 116.168 54.146 114.069C55.384 110.108 58.936 107.204 62.834 105.814C66.728 104.425 70.96 104.348 75.089 104.506C77.021 104.579 78.954 104.704 80.879 104.875C83.772 105.134 86.754 105.535 89.228 107.062C92.065 108.812 93.191 112.668 94.474 115.75V115.754L94.473 115.755Z" fill="#1B2230"/>
<path d="M94.232 115.819C94.8524 117.294 95.5184 118.749 96.229 120.182C96.318 120.364 96.56 120.324 96.661 120.182C98.408 117.723 100.147 115.26 101.887 112.793C101.951 112.704 101.919 112.563 101.847 112.49C100.773 111.389 99.7778 110.214 98.868 108.974C97.96 107.73 97.194 106.466 96.378 105.203C95.563 103.939 94.752 102.753 93.772 101.654C92.88 100.654 91.883 99.754 90.818 98.944C88.659 97.304 86.23 96.061 83.72 95.06C80.968 93.962 78.079 93.059 75.145 92.626C71.969 92.156 68.814 92.447 65.686 93.108C62.809 93.715 59.948 94.59 57.382 96.052C55.106 97.349 53.072 99.139 51.676 101.375C50.123 103.865 49.675 106.742 49.654 109.638C49.642 111.189 49.707 112.748 49.812 114.3C49.917 115.852 50.098 117.431 50.445 118.963C51.035 121.571 52.148 124.123 54.008 126.079C54.448 126.541 54.924 126.954 55.437 127.335C55.558 127.425 55.78 127.335 55.804 127.185L55.853 126.869L55.485 127.019C55.974 127.372 56.655 127.667 57.212 127.279C57.729 126.914 57.854 126.185 57.87 125.593C57.894 124.723 57.68 123.843 57.346 123.045C57.011 122.248 56.442 121.515 56.01 120.729C55.5284 119.86 55.1271 118.949 54.811 118.007C54.497 117.067 54.263 116.16 54.255 115.204C54.247 114.248 54.614 113.389 55.033 112.567C55.5123 111.633 56.1165 110.769 56.829 109.999C60.065 106.471 64.815 105.101 69.447 104.789C72.102 104.611 74.777 104.717 77.433 104.875C80.088 105.033 82.63 105.162 85.148 105.741C86.331 106.013 87.497 106.398 88.57 106.977C89.4729 107.46 90.267 108.123 90.903 108.925C92.193 110.549 92.936 112.546 93.687 114.458C93.869 114.916 94.05 115.374 94.236 115.828C94.356 116.123 94.841 115.993 94.72 115.694C93.921 113.77 93.26 111.769 92.202 109.962C91.702 109.107 91.108 108.293 90.374 107.625C89.559 106.884 88.574 106.365 87.561 105.96C85.249 105.033 82.731 104.785 80.274 104.579C77.55 104.352 74.81 104.19 72.078 104.202C67.268 104.222 62.24 104.972 58.318 107.973C56.656 109.249 55.231 110.873 54.368 112.802C53.992 113.64 53.718 114.47 53.758 115.398C53.803 116.386 54.057 117.358 54.376 118.29C54.694 119.222 55.102 120.13 55.578 120.992C56.01 121.778 56.578 122.478 56.918 123.317C57.237 124.107 57.434 124.986 57.358 125.84C57.318 126.274 57.156 126.975 56.603 126.97C56.284 126.97 55.99 126.772 55.743 126.594C55.623 126.504 55.401 126.594 55.376 126.744L55.328 127.06L55.695 126.91C50.954 123.414 50.361 116.985 50.191 111.562C50.098 108.662 50.151 105.64 51.401 102.962C52.483 100.643 54.296 98.715 56.398 97.281C58.755 95.673 61.463 94.672 64.211 93.98C67.212 93.225 70.335 92.715 73.438 92.949C76.541 93.185 79.301 93.999 82.086 94.991C84.567 95.874 86.988 96.976 89.2 98.422C91.4802 99.9161 93.4561 101.829 95.023 104.06C95.846 105.243 96.588 106.479 97.375 107.682C98.1813 108.921 99.0654 110.107 100.022 111.234C100.498 111.79 100.992 112.331 101.503 112.854L101.463 112.55C99.727 115.017 97.985 117.48 96.237 119.939H96.669C95.9756 118.546 95.3253 117.131 94.719 115.698C94.599 115.406 94.115 115.532 94.236 115.831L94.232 115.819Z" fill="#1B2230"/>
<path d="M73.1321 12.278C76.7431 13.542 79.6481 17.188 81.5251 20.497C83.3211 23.664 85.1651 27.01 85.2011 30.656C85.2211 32.742 84.6361 34.791 84.5671 36.877C84.5031 38.814 84.8821 40.742 84.9631 42.677C85.1245 46.7231 83.997 50.7159 81.7431 54.08C77.3361 60.618 69.4151 63.708 61.8371 65.81C58.3751 66.77 54.7631 67.61 51.2171 67.038C47.4111 66.422 44.0571 64.251 40.8341 62.128C37.1981 59.735 33.5061 57.292 30.7211 53.942C24.2161 46.101 23.9181 34.512 27.2991 24.892C28.8091 20.602 31.0081 16.495 34.2081 13.275C37.4081 10.055 41.6681 7.77801 46.1921 7.49901C48.9281 7.33201 51.6481 7.88301 54.3351 8.43001C60.6021 9.71401 67.0991 10.16 73.1401 12.278H73.1321Z" fill="#E7BAA9"/>
<path d="M76.5171 14.9881C77.9941 11.0631 77.2151 6.21007 75.3071 2.47607C74.9351 1.74607 74.4711 1.01807 73.7651 0.60807C72.1871 -0.30693 70.2501 0.69407 68.5511 1.35407C63.9391 3.14007 58.7911 2.26107 53.8951 1.54407C49.0051 0.82707 43.6951 0.369071 39.4051 2.83607C37.6581 3.84107 36.1971 5.27507 34.5591 6.45807C31.2581 8.83907 27.3281 10.1391 23.7291 12.0391C20.1291 13.9391 16.6591 16.7291 15.5611 20.6551C15.1291 22.1901 15.0891 23.8221 14.5881 25.3371C13.7931 27.7351 11.9411 29.6071 10.6541 31.7771C7.21612 37.5821 8.45112 45.7441 13.4461 50.2651C14.7091 51.4071 16.1821 52.3381 17.2561 53.6631C20.6731 57.8721 19.1041 64.5671 22.3001 68.9461C24.6641 72.1821 29.0021 73.2881 31.8751 76.0791C32.5451 76.7271 33.1551 77.4841 33.9981 77.8691C36.5361 79.0281 39.2031 76.3181 41.9921 76.2041C46.1071 76.0341 48.4521 81.2721 52.4351 82.3291C53.7301 82.6731 55.0981 82.5391 56.4301 82.3821C60.9811 81.8351 66.1951 80.4821 68.0471 76.2731C69.4711 73.0411 68.3421 69.3311 67.7771 65.8391C67.2917 62.8556 67.2371 59.818 67.6151 56.8191C67.6961 56.1791 67.8211 55.4891 68.2971 55.0601C68.8541 54.5541 69.6851 54.5701 70.4271 54.4901C72.4771 54.2671 74.3941 53.0471 75.4761 51.2851C76.2141 50.0781 76.5611 48.6811 76.8961 47.3081L80.2211 33.6581C80.7211 31.6041 81.2261 29.5261 81.2791 27.4111C81.3961 22.6271 80.3951 17.7791 76.5171 14.9921V14.9881Z" fill="#1B2230"/>
<path d="M76.7601 15.053C78.2721 10.953 77.4811 6.16203 75.5241 2.35003C75.0721 1.46703 74.4871 0.613028 73.5431 0.224028C72.5991 -0.165972 71.5131 0.00902805 70.5531 0.321028C69.4801 0.669028 68.4671 1.17103 67.3851 1.49103C66.1986 1.83261 64.9777 2.04057 63.7451 2.11103C58.9921 2.41503 54.3351 1.13103 49.6181 0.803028C47.4071 0.649028 45.1591 0.689028 42.9921 1.18803C40.8251 1.68603 38.8801 2.73903 37.1091 4.13703C36.1811 4.86603 35.2851 5.64303 34.3251 6.32703C33.3478 7.01274 32.3244 7.63021 31.2621 8.17503C29.1801 9.26103 27.0051 10.152 24.8941 11.176C21.2911 12.93 17.5701 15.344 15.8601 19.14C15.3961 20.165 15.1461 21.242 14.9651 22.348C14.7831 23.454 14.6131 24.681 14.1701 25.778C13.3261 27.861 11.7481 29.526 10.5861 31.421C8.6281 34.601 8.0631 38.49 8.7501 42.135C9.09147 43.9621 9.7555 45.7138 10.7111 47.308C11.7441 49.017 13.1121 50.354 14.6611 51.593C15.5501 52.306 16.4541 53.027 17.1641 53.93C17.744 54.6862 18.2028 55.5279 18.5241 56.425C19.1941 58.24 19.4481 60.176 19.7541 62.076C20.0611 63.976 20.4041 65.888 21.2391 67.629C22.0751 69.371 23.4551 70.72 25.0451 71.806C26.6351 72.891 28.4661 73.79 30.0851 74.929C30.9241 75.516 31.6461 76.196 32.3691 76.921C33.0911 77.646 33.8491 78.234 34.8621 78.371C36.7551 78.631 38.5141 77.431 40.2331 76.836C41.0971 76.536 42.0011 76.358 42.9131 76.508C43.7121 76.638 44.4501 76.986 45.1281 77.424C48.0381 79.299 50.0591 82.596 53.8201 82.787C54.9421 82.843 56.0671 82.689 57.1771 82.54C58.1211 82.41 59.0571 82.248 59.9861 82.03C61.7451 81.62 63.5041 81.02 65.0341 80.04C66.5641 79.06 67.6931 77.82 68.3591 76.204C69.2511 74.046 69.0571 71.66 68.6861 69.408C68.2741 66.896 67.7411 64.442 67.6491 61.89C67.6006 60.5671 67.637 59.2423 67.7581 57.924C67.8501 56.891 67.8221 55.34 69.0081 54.947C69.5081 54.781 70.0451 54.789 70.5621 54.724C71.0747 54.6603 71.5783 54.5382 72.0631 54.36C72.9575 54.0313 73.7787 53.5301 74.4801 52.885C76.1501 51.35 76.7001 49.179 77.2201 47.052L79.1171 39.275C79.7421 36.703 80.4201 34.139 80.9771 31.555C81.8531 27.496 81.8691 22.907 80.1211 19.059C79.3552 17.3527 78.1579 15.8755 76.6471 14.773C76.3851 14.583 76.1351 15.02 76.3931 15.207C79.6781 17.597 80.8481 21.635 81.0171 25.536C81.1181 27.913 80.7911 30.194 80.2471 32.506C79.6491 35.038 79.0161 37.566 78.3981 40.098C77.7811 42.629 77.1801 45.137 76.5581 47.652C76.0301 49.782 75.2831 51.82 73.4031 53.112C72.57 53.6887 71.616 54.0671 70.6141 54.218C69.6941 54.352 68.6211 54.267 67.9641 55.06C67.3061 55.854 67.3341 57 67.2491 57.928C67.1368 59.168 67.0991 60.4136 67.1361 61.658C67.2051 64.085 67.6401 66.434 68.0721 68.816C68.5041 71.198 68.8191 73.568 67.9791 75.812C66.6591 79.332 62.9111 80.882 59.5091 81.628C58.6061 81.827 57.6891 81.977 56.7691 82.098C55.5671 82.252 54.3201 82.414 53.1141 82.224C51.4071 81.956 50.0111 80.899 48.7441 79.794C47.4761 78.687 46.3711 77.545 44.9581 76.747C43.5461 75.949 41.9241 75.771 40.3261 76.286C38.6391 76.828 36.9161 78.064 35.0761 77.906C33.9581 77.809 33.1881 77.056 32.4411 76.294C31.7678 75.6087 31.0312 74.9886 30.2411 74.442C28.6641 73.349 26.9371 72.498 25.3511 71.425C23.7651 70.351 22.4141 69.011 21.5981 67.241C20.0171 63.801 20.3111 59.841 19.0081 56.312C18.7038 55.4628 18.2857 54.6588 17.7651 53.922C17.1481 53.064 16.3691 52.359 15.5541 51.69C14.7391 51.022 13.8841 50.382 13.1331 49.629C12.4768 48.9693 11.891 48.243 11.3851 47.462C9.3871 44.383 8.5801 40.53 9.1331 36.902C9.40528 35.0556 10.046 33.2828 11.0171 31.689C12.1271 29.886 13.5871 28.299 14.4671 26.358C15.4111 24.272 15.2901 21.918 16.1261 19.8C16.8521 17.953 18.1471 16.39 19.6321 15.101C22.9821 12.197 27.2421 10.796 31.1371 8.81903C33.1421 7.79903 34.9341 6.55503 36.6771 5.14103C37.5931 4.40003 38.5171 3.66303 39.5421 3.07103C40.5051 2.5212 41.5363 2.10058 42.6091 1.82003C46.9591 0.653028 51.5231 1.48003 55.8891 2.10303C58.2011 2.43503 60.5371 2.72303 62.8781 2.66603C64.0123 2.64429 65.1423 2.52248 66.2551 2.30203C67.3651 2.07503 68.4061 1.70203 69.4511 1.28103C70.4281 0.888028 71.4891 0.434028 72.5671 0.515028C73.7771 0.605028 74.5111 1.50003 75.0401 2.50503C76.0692 4.46781 76.7182 6.60732 76.9531 8.81103C77.1711 10.877 77.0051 12.979 76.2831 14.935C76.1701 15.239 76.6541 15.369 76.7671 15.069L76.7601 15.053Z" fill="#1B2230"/>
<path d="M157.735 17.2191L163.884 24.2091C164.599 25.0229 164.963 26.087 164.896 27.1684C164.828 28.2498 164.335 29.2605 163.524 29.9791L142.001 49.0551C141.598 49.4127 141.127 49.6871 140.618 49.8626C140.108 50.038 139.568 50.1112 139.03 50.0777C138.492 50.0443 137.966 49.9049 137.482 49.6676C136.998 49.4304 136.565 49.0999 136.209 48.6951L130.06 41.7031C129.345 40.8893 128.981 39.8251 129.048 38.7437C129.116 37.6623 129.609 36.6516 130.42 35.9331L151.943 16.8581C152.347 16.5005 152.817 16.2261 153.326 16.0506C153.836 15.8751 154.376 15.802 154.914 15.8354C155.452 15.8689 155.978 16.0082 156.462 16.2455C156.946 16.4827 157.379 16.8143 157.735 17.2191Z" fill="#A3ABA9"/>
<path d="M152.162 41.6651C153.13 42.7671 153.247 44.2491 152.424 44.9791C151.601 45.7081 150.148 45.4081 149.18 44.3061C148.211 43.2041 148.619 42.3171 149.442 41.5881C150.265 40.8591 151.189 40.5631 152.162 41.6651Z" fill="#E7BAA9"/>
<path d="M154.538 38.631C155.721 39.976 156.011 41.657 155.188 42.386C154.365 43.116 152.738 42.617 151.556 41.272C150.374 39.927 150.726 38.98 151.548 38.246C152.371 37.513 153.356 37.286 154.538 38.627V38.631Z" fill="#E7BAA9"/>
<path d="M156.794 35.1321C158.549 36.1851 159.49 37.8581 158.888 38.8661C158.288 39.8751 156.378 39.8381 154.619 38.7861C152.864 37.7321 152.879 36.6341 153.481 35.6261C154.082 34.6171 155.039 34.0821 156.794 35.1361V35.1321Z" fill="#E7BAA9"/>
<path d="M110.014 72.25L113.047 52.489C113.078 52.287 113.148 52.093 113.253 51.9181C113.359 51.7433 113.498 51.5909 113.663 51.4698C113.827 51.3487 114.014 51.2612 114.213 51.2124C114.411 51.1635 114.617 51.1542 114.819 51.185L125.647 52.86C126.055 52.9243 126.421 53.1476 126.664 53.4811C126.908 53.8146 127.009 54.231 126.946 54.639L123.912 74.399C123.849 74.8067 123.628 75.1728 123.295 75.4173C122.963 75.6617 122.548 75.7645 122.14 75.703L111.313 74.028C110.905 73.964 110.539 73.7408 110.295 73.4073C110.052 73.0738 109.95 72.6573 110.013 72.249L110.014 72.25Z" fill="#FF6432"/>
<path d="M120.606 100.196C120.606 100.196 122.273 89.308 123.98 87.173C123.98 87.173 127.595 82.552 130.242 79.343C130.981 78.449 132.264 76.654 132.433 74.179C132.583 72.04 132.482 69.472 132.248 68.083C132.131 67.37 131.711 66.123 130.27 65.851C130.27 65.851 131.731 62.011 129.56 61.238C128.35 60.804 127.208 61.262 124.726 64.365L117.326 73.62C117.326 73.62 114.759 76.938 114.469 80.219C114.275 82.41 113.904 95.359 112.314 97.624" fill="#E7BAA9"/>
</g>
<defs>
<clipPath id="clip0_58_379">
<rect width="183" height="333" fill="white"/>
</clipPath>
</defs>
</svg>
