<svg xmlns="http://www.w3.org/2000/svg" width="35" height="34" viewBox="0 0 35 34" fill="none">
  <path d="M31.9164 5.55848L19.1663 0.245906C18.7761 0.0798878 18.3587 0 17.9417 0C17.5247 0 17.1076 0.079423 16.7158 0.245441L3.96632 5.55848C2.77896 6.0479 2 7.21135 2 8.43988C2 25.5929 14.5775 34 17.9311 34C21.205 34 33.8754 25.719 33.8754 8.43988C33.8754 7.21135 33.0985 6.0479 31.9164 5.55848ZM31.7438 8.51957C31.7438 23.4811 20.7069 31.875 17.9444 31.875C15.1021 31.8152 4.12503 23.3881 4.12503 8.49965C4.12503 8.068 4.38236 7.68616 4.7725 7.52015L17.5227 2.20757C17.6537 2.15262 17.7955 2.1235 17.9383 2.1235C18.0758 2.1235 18.2141 2.15054 18.3445 2.20757L31.0946 7.52015C31.7039 7.77581 31.7438 8.35355 31.7438 8.51957Z" fill="#fcfcfc"/>
  <path d="M13.168 16.5821L17.1283 20.5425L24.2139 13.457" stroke="#fcfcfc" stroke-width="2" stroke-linecap="round" stroke-linejoin="round"/>
</svg>