<svg xmlns="http://www.w3.org/2000/svg" width="36" height="34" viewBox="0 0 36 34" fill="none">
    <g clip-path="url(#clip0_58_578)">
      <path d="M2.30078 31.5C1.7485 31.5 1.30078 31.9477 1.30078 32.5C1.30078 33.0523 1.7485 33.5 2.30078 33.5H33.8008C34.3531 33.5 34.8008 33.0523 34.8008 32.5C34.8008 31.9477 34.3531 31.5 33.8008 31.5H2.30078Z" fill="#fcfcfc"/>
      <path d="M7.80078 16.2695C7.80078 15.7172 7.35307 15.2695 6.80078 15.2695C6.2485 15.2695 5.80078 15.7172 5.80078 16.2695V28.7695C5.80078 29.3218 6.2485 29.7695 6.80078 29.7695C7.35307 29.7695 7.80078 29.3218 7.80078 28.7695V16.2695Z" fill="#fcfcfc"/>
      <path d="M15.3008 16.2695C15.3008 15.7172 14.8531 15.2695 14.3008 15.2695C13.7485 15.2695 13.3008 15.7172 13.3008 16.2695V28.7695C13.3008 29.3218 13.7485 29.7695 14.3008 29.7695C14.8531 29.7695 15.3008 29.3218 15.3008 28.7695V16.2695Z" fill="#fcfcfc"/>
      <path d="M22.3008 16.2695C22.3008 15.7172 21.8531 15.2695 21.3008 15.2695C20.7485 15.2695 20.3008 15.7172 20.3008 16.2695V28.7695C20.3008 29.3218 20.7485 29.7695 21.3008 29.7695C21.8531 29.7695 22.3008 29.3218 22.3008 28.7695V16.2695Z" fill="#fcfcfc"/>
      <path d="M29.8008 16.2695C29.8008 15.7172 29.3531 15.2695 28.8008 15.2695C28.2485 15.2695 27.8008 15.7172 27.8008 16.2695V28.7695C27.8008 29.3218 28.2485 29.7695 28.8008 29.7695C29.3531 29.7695 29.8008 29.3218 29.8008 28.7695V16.2695Z" fill="#fcfcfc"/>
      <path d="M1.79862 10.6352C1.4076 10.8623 1.21758 11.3234 1.33515 11.76C1.45271 12.1966 1.8486 12.5 2.30075 12.5H33.8008C34.2555 12.5 34.6529 12.1933 34.7681 11.7534C34.8834 11.3136 34.6873 10.8513 34.291 10.6284L18.291 1.62842C17.9824 1.4548 17.6049 1.45738 17.2986 1.63521L1.79862 10.6352Z" stroke="#fcfcfc" stroke-width="2" stroke-miterlimit="10" stroke-linecap="round" stroke-linejoin="round"/>
    </g>
    <defs>
      <clipPath id="clip0_58_578">
        <rect width="36" height="34" fill="white"/>
      </clipPath>
    </defs>
  </svg>