<svg xmlns="http://www.w3.org/2000/svg" width="38" height="35" viewBox="0 0 38 35" fill="none">
    <g clip-path="url(#clip0_58_589)">
      <mask id="mask0_58_589" style="mask-type:luminance" maskUnits="userSpaceOnUse" x="0" y="0" width="38" height="35">
        <path d="M37.3335 0.00292969H0.333496V34.0029H37.3335V0.00292969Z" fill="white"/>
      </mask>
      <g mask="url(#mask0_58_589)">
        <path d="M33.3334 9.87838H31.0454C29.8862 4.25065 24.892 0.00292969 18.9236 0.00292969C12.9553 0.00292969 7.9612 4.25045 6.79641 9.87838H4.50834C2.38755 9.87838 0.666992 11.593 0.666992 13.7018V17.9675C0.666992 20.0763 2.39363 21.791 4.50834 21.791H7.43568C7.93148 21.791 8.3318 21.3906 8.3318 20.8948V12.376C8.3318 6.53927 13.0812 1.78985 18.918 1.78985C24.7548 1.78985 29.5042 6.53927 29.5042 12.376V19.2705C29.5042 24.7547 25.2506 29.3194 19.8739 29.8028C19.4677 28.4706 18.231 27.5027 16.7673 27.5027C14.9751 27.5027 13.5172 28.9606 13.5172 30.7528C13.5172 32.5451 14.9751 34.0029 16.7673 34.0029C18.2667 34.0029 19.5274 32.9814 19.9038 31.5953C25.4059 31.1593 29.9226 27.079 31.0335 21.7916H33.3336C35.4424 21.7916 37.157 20.0769 37.157 17.9681V13.7024C37.157 11.5936 35.4422 9.87838 33.3334 9.87838ZM6.53915 20.0044H4.50793C3.37871 20.0044 2.45883 19.0904 2.45883 17.9732V13.7075C2.45883 12.5844 3.37899 11.6763 4.50793 11.6763H6.53915V20.01V20.0044ZM16.7669 32.2156C15.9604 32.2156 15.3091 31.5643 15.3091 30.7577C15.3091 29.9512 15.9604 29.2999 16.7669 29.2999C17.5734 29.2999 18.2247 29.9691 18.2247 30.7577C18.2247 31.5464 17.5734 32.2156 16.7669 32.2156ZM35.3646 17.9732C35.3646 19.0962 34.4506 20.0044 33.3334 20.0044H31.3022V11.6706H33.3334C34.4565 11.6706 35.3646 12.5846 35.3646 13.7018V17.9732Z" fill="#fcfcfc"/>
      </g>
    </g>
    <defs>
      <clipPath id="clip0_58_589">
        <rect width="38" height="35" fill="white"/>
      </clipPath>
    </defs>
  </svg>