<svg width="24" height="24" viewBox="0 0 24 24" fill="none" xmlns="http://www.w3.org/2000/svg">
<path d="M20.8593 8.36997L13.9293 2.82997C12.8593 1.96997 11.1293 1.96997 10.0693 2.81997L3.13929 8.36997C2.35929 8.98997 1.85929 10.3 2.02929 11.28L3.35929 19.24C3.59929 20.66 4.95929 21.81 6.39929 21.81H17.5993C19.0293 21.81 20.3993 20.65 20.6393 19.24L21.9693 11.28C22.1293 10.3 21.6293 8.98997 20.8593 8.36997ZM11.9993 15.5C10.6193 15.5 9.49929 14.38 9.49929 13C9.49929 11.62 10.6193 10.5 11.9993 10.5C13.3793 10.5 14.4993 11.62 14.4993 13C14.4993 14.38 13.3793 15.5 11.9993 15.5Z" fill="#f2f2f2"/>
</svg>
